# Blender 3.6.13
# www.blender.org
mtllib table_part2.mtl
o Cube.019
v -7.414074 13.129984 -8.377711
v -7.414072 15.064938 -8.377711
v -7.414072 13.129986 7.508996
v -7.414074 15.064939 7.508996
v -19.828705 15.064938 -8.377711
v -19.828705 13.129986 7.508996
v -19.828705 13.129984 -8.377711
v -19.828705 15.064939 7.508996
vn -0.0000 -1.0000 -0.0000
vn -0.0000 -0.0000 -1.0000
vn -0.0000 1.0000 -0.0000
vn -0.0000 -0.0000 1.0000
vn 1.0000 -0.0000 -0.0000
vn -1.0000 -0.0000 -0.0000
vt -0.002205 0.990459
vt -0.001049 0.871198
vt 0.268796 0.877897
vt 0.267639 0.997158
vt 0.503285 0.000121
vt 0.503285 0.691007
vt 0.456693 0.691007
vt 0.456693 0.000121
vt 0.006012 0.986341
vt 0.006418 0.867068
vt 0.276291 0.869416
vt 0.275886 0.988689
vt 0.412800 0.999136
vt 0.408634 0.014897
vt 0.639532 0.003271
vt 0.631875 0.999879
vt 0.041122 0.993416
vt 0.045940 0.014127
vt 1.000184 0.003751
vt 1.000184 1.000579
s 1
usemtl table_brown
f 7/1/1 1/2/1 3/3/1 6/4/1
f 7/5/2 5/6/2 2/7/2 1/8/2
f 2/9/3 5/10/3 8/11/3 4/12/3
f 3/13/4 4/14/4 8/15/4 6/16/4
f 4/14/5 3/13/5 1/17/5 2/18/5
f 8/15/6 5/19/6 7/20/6 6/16/6
