# Blender 3.6.13
# www.blender.org
mtllib table_part1.mtl
o Cube.020
v 16.747227 13.129986 7.508996
v 16.747227 15.064939 7.508996
v -0.959545 13.129984 -8.377711
v -0.959543 15.064938 -8.377711
v -0.959543 13.129986 7.508996
v -0.959545 15.064939 7.508996
v 14.604289 13.129984 -8.377711
v 16.747227 13.129985 -6.234774
v 15.081139 13.129984 -8.323984
v 15.534076 13.129984 -8.165495
v 15.940390 13.129984 -7.910191
v 16.279707 13.129984 -7.570874
v 16.535009 13.129984 -7.164560
v 16.693501 13.129984 -6.711623
v 16.747227 15.064939 -6.234774
v 14.604289 15.064938 -8.377711
v 16.693501 15.064938 -6.711623
v 16.535009 15.064938 -7.164560
v 16.279707 15.064938 -7.570874
v 15.940390 15.064938 -7.910191
v 15.534076 15.064938 -8.165495
v 15.081139 15.064938 -8.323984
v 5.778554 1.451173 2.464787
v 0.706916 1.451173 5.920067
v 4.843929 1.451173 3.217251
v 3.933246 1.451173 3.923679
v 3.081514 1.451173 4.556919
v 2.321433 1.451173 5.092625
v 1.682245 1.451173 5.510227
v 1.188495 1.451173 5.793667
v 0.859171 1.451173 5.932053
v 0.706916 13.614570 5.920066
v 5.778554 13.614570 2.464786
v 0.859171 13.614570 5.932052
v 1.188495 13.614570 5.793666
v 1.682245 13.614570 5.510226
v 2.321433 13.614570 5.092624
v 3.081514 13.614570 4.556918
v 3.933246 13.614570 3.923678
v 4.843929 13.614570 3.217250
v 0.360624 1.451173 5.424828
v 4.809038 1.451173 1.078259
v 0.391288 1.451173 5.262936
v 0.603707 1.451173 4.957348
v 0.989708 1.451173 4.519817
v 1.534454 1.451173 3.967152
v 2.217021 1.451173 3.320599
v 3.011171 1.451173 2.605000
v 3.886392 1.451173 1.847858
v 4.809038 13.614570 1.078258
v 0.360624 13.614570 5.424827
v 3.886392 13.614570 1.847857
v 3.011171 13.614570 2.604999
v 2.217021 13.614570 3.320598
v 1.534454 13.614570 3.967151
v 0.989708 13.614570 4.519816
v 0.603707 13.614570 4.957347
v 0.391288 13.614570 5.262935
v 15.516737 1.451172 -6.216858
v 11.068323 1.451173 -1.870293
v 15.486067 1.451172 -6.054966
v 15.273647 1.451172 -5.749374
v 14.887648 1.451173 -5.311848
v 14.342897 1.451173 -4.759182
v 13.660332 1.451173 -4.112629
v 12.866188 1.451173 -3.397034
v 11.990969 1.451173 -2.639885
v 11.068323 13.614570 -1.870294
v 15.516737 13.614570 -6.216859
v 11.990969 13.614570 -2.639886
v 12.866188 13.614570 -3.397035
v 13.660332 13.614570 -4.112630
v 14.342897 13.614570 -4.759183
v 14.887648 13.614570 -5.311849
v 15.273647 13.614570 -5.749375
v 15.486067 13.614570 -6.054967
v 10.098810 1.451173 -3.256809
v 15.170437 1.451172 -6.712097
v 11.033426 1.451173 -4.009281
v 11.944109 1.451173 -4.715710
v 12.795851 1.451173 -5.348949
v 13.555923 1.451172 -5.884663
v 14.195110 1.451172 -6.302258
v 14.688858 1.451172 -6.585697
v 15.018183 1.451172 -6.724083
v 15.170437 13.614569 -6.712098
v 10.098810 13.614570 -3.256810
v 15.018183 13.614569 -6.724084
v 14.688858 13.614569 -6.585698
v 14.195110 13.614570 -6.302259
v 13.555923 13.614570 -5.884664
v 12.795851 13.614570 -5.348950
v 11.944109 13.614570 -4.715711
v 11.033426 13.614570 -4.009282
vn -0.0000 1.0000 -0.0000
vn -0.0000 -1.0000 -0.0000
vn -0.0000 -0.0000 -1.0000
vn 0.0561 -0.0000 -0.9984
vn -0.0000 -0.0000 1.0000
vn 0.9984 -0.0000 -0.0561
vn 0.9749 -0.0000 -0.2225
vn 0.9010 -0.0000 -0.4339
vn 0.7818 -0.0000 -0.6235
vn 0.6235 -0.0000 -0.7818
vn 0.4339 -0.0000 -0.9010
vn 0.2225 -0.0000 -0.9749
vn 1.0000 -0.0000 -0.0000
vn -1.0000 -0.0000 -0.0000
vn 0.6372 -0.0000 0.7707
vn 0.6305 -0.0000 0.7762
vn 0.8195 -0.0000 -0.5731
vn -0.8195 -0.0000 0.5730
vn -0.6372 -0.0000 -0.7707
vn -0.6305 -0.0000 -0.7762
vn 0.6200 -0.0000 0.7846
vn 0.6048 -0.0000 0.7964
vn 0.5864 -0.0000 0.8100
vn 0.5616 -0.0000 0.8274
vn 0.5226 -0.0000 0.8526
vn 0.4435 -0.0000 0.8963
vn 0.1589 -0.0000 0.9873
vn -0.0785 -0.0000 0.9969
vn -0.6474 -0.0000 -0.7621
vn -0.6619 -0.0000 -0.7496
vn -0.6786 -0.0000 -0.7345
vn -0.7000 -0.0000 -0.7141
vn -0.7313 -0.0000 -0.6820
vn -0.7868 -0.0000 -0.6172
vn -0.9221 -0.0000 -0.3869
vn -0.9825 -0.0000 -0.1861
vn 0.0785 -0.0000 -0.9969
vn -0.1589 -0.0000 -0.9873
vn -0.4435 -0.0000 -0.8963
vn -0.5226 -0.0000 -0.8526
vn -0.5616 -0.0000 -0.8274
vn -0.5864 -0.0000 -0.8100
vn -0.6048 -0.0000 -0.7964
vn -0.6200 -0.0000 -0.7846
vn 0.6474 -0.0000 0.7621
vn 0.6619 -0.0000 0.7496
vn 0.6786 -0.0000 0.7345
vn 0.7000 -0.0000 0.7141
vn 0.7313 -0.0000 0.6820
vn 0.7868 -0.0000 0.6172
vn 0.9221 -0.0000 0.3870
vn 0.9825 -0.0000 0.1861
vt 0.290899 0.834973
vt 0.298754 0.835474
vt 0.306216 0.836950
vt 0.312909 0.839329
vt 0.318498 0.842490
vt 0.322704 0.846276
vt 0.325314 0.850495
vt 0.326199 0.854938
vt 0.326199 0.999937
vt 0.064502 0.999937
vt 0.064502 0.834973
vt 0.326199 0.000062
vt 0.326199 0.145062
vt 0.325314 0.149504
vt 0.322704 0.153724
vt 0.318498 0.157510
vt 0.312909 0.160671
vt 0.306216 0.163049
vt 0.298754 0.164526
vt 0.290899 0.165026
vt 0.064502 0.165026
vt 0.064502 0.000062
vt 0.390639 0.165026
vt 0.390639 0.834973
vt 0.333998 0.834973
vt 0.333998 0.165026
vt 0.000062 0.834973
vt 0.000062 0.165026
vt 0.298754 0.165026
vt 0.298754 0.834973
vt 0.306216 0.165026
vt 0.306216 0.834973
vt 0.312909 0.165026
vt 0.312909 0.834973
vt 0.329136 0.165026
vt 0.329136 0.834973
vt 0.330614 0.165026
vt 0.330614 0.834973
vt 0.332263 0.165026
vt 0.332263 0.834973
vt 0.375000 0.830352
vt 0.625000 0.830353
vt 0.625000 0.919648
vt 0.375000 0.919648
vt 0.375000 0.580352
vt 0.625000 0.580353
vt 0.625000 0.669648
vt 0.375000 0.669648
vt 0.625000 0.580352
vt 0.626544 0.564677
vt 0.631116 0.549603
vt 0.638542 0.535711
vt 0.648535 0.523535
vt 0.660711 0.513542
vt 0.674603 0.506117
vt 0.689677 0.501544
vt 0.705353 0.500000
vt 0.794648 0.500000
vt 0.810323 0.501544
vt 0.825397 0.506117
vt 0.839289 0.513542
vt 0.851465 0.523535
vt 0.861458 0.535711
vt 0.868884 0.549603
vt 0.873456 0.564677
vt 0.875000 0.580353
vt 0.875000 0.669648
vt 0.873456 0.685324
vt 0.868884 0.700397
vt 0.861458 0.714289
vt 0.851465 0.726465
vt 0.839289 0.736458
vt 0.825397 0.743884
vt 0.810323 0.748456
vt 0.794648 0.750000
vt 0.705352 0.750000
vt 0.689677 0.748456
vt 0.674603 0.743884
vt 0.660711 0.736458
vt 0.648535 0.726465
vt 0.638542 0.714289
vt 0.631117 0.700397
vt 0.626544 0.685324
vt 0.375000 0.080352
vt 0.625000 0.080352
vt 0.625000 0.169648
vt 0.375000 0.169648
vt 0.375000 0.330352
vt 0.625000 0.330352
vt 0.625000 0.419648
vt 0.375000 0.419648
vt 0.625000 0.935323
vt 0.375000 0.935323
vt 0.625000 0.950397
vt 0.375000 0.950397
vt 0.625000 0.964289
vt 0.375000 0.964289
vt 0.625000 1.000000
vt 0.375000 1.000000
vt 0.375000 0.000000
vt 0.625000 0.000000
vt 0.625000 0.035711
vt 0.375000 0.035711
vt 0.625000 0.049603
vt 0.375000 0.049603
vt 0.625000 0.064676
vt 0.375000 0.064676
vt 0.375000 0.314676
vt 0.625000 0.314676
vt 0.375000 0.299603
vt 0.625000 0.299603
vt 0.375000 0.285711
vt 0.625000 0.285711
vt 0.375000 0.250000
vt 0.625000 0.250000
vt 0.375000 0.214289
vt 0.625000 0.214289
vt 0.375000 0.200397
vt 0.625000 0.200397
vt 0.375000 0.185324
vt 0.625000 0.185324
vt 0.375000 0.564677
vt 0.625000 0.564677
vt 0.375000 0.549603
vt 0.625000 0.549603
vt 0.375000 0.535711
vt 0.625000 0.535711
vt 0.375000 0.500000
vt 0.625000 0.500000
vt 0.375000 0.464289
vt 0.625000 0.464289
vt 0.375000 0.450397
vt 0.625000 0.450397
vt 0.375000 0.435324
vt 0.625000 0.435324
vt 0.375000 0.814677
vt 0.625000 0.814677
vt 0.375000 0.799603
vt 0.625000 0.799603
vt 0.375000 0.785711
vt 0.625000 0.785711
vt 0.375000 0.750000
vt 0.625000 0.750000
vt 0.375000 0.714289
vt 0.625000 0.714289
vt 0.375000 0.700397
vt 0.625000 0.700397
vt 0.375000 0.685324
vt 0.625000 0.685324
vt 0.125000 0.580352
vt 0.126544 0.564677
vt 0.131116 0.549603
vt 0.138542 0.535711
vt 0.148535 0.523535
vt 0.160711 0.513542
vt 0.174603 0.506117
vt 0.189676 0.501544
vt 0.205353 0.500000
vt 0.294648 0.500000
vt 0.310324 0.501544
vt 0.325397 0.506117
vt 0.339289 0.513542
vt 0.351465 0.523535
vt 0.361458 0.535711
vt 0.368884 0.549603
vt 0.373456 0.564677
vt 0.375000 0.580353
vt 0.373456 0.685324
vt 0.368884 0.700397
vt 0.361458 0.714289
vt 0.351465 0.726465
vt 0.339289 0.736458
vt 0.325397 0.743884
vt 0.310324 0.748456
vt 0.294648 0.750000
vt 0.205352 0.750000
vt 0.189676 0.748456
vt 0.174603 0.743884
vt 0.160711 0.736458
vt 0.148535 0.726465
vt 0.138542 0.714289
vt 0.131116 0.700397
vt 0.126544 0.685324
vt 0.125000 0.669648
s 1
usemtl table_brown
f 15/1/1 17/2/1 18/3/1 19/4/1 20/5/1 21/6/1 22/7/1 16/8/1 4/9/1 6/10/1 2/11/1
f 3/12/2 7/13/2 9/14/2 10/15/2 11/16/2 12/17/2 13/18/2 14/19/2 8/20/2 1/21/2 5/22/2
f 3/23/3 4/24/3 16/25/4 7/26/4
f 1/21/5 2/11/5 6/27/5 5/28/5
f 15/1/6 8/20/6 14/29/7 17/30/7
f 17/30/7 14/29/7 13/31/8 18/32/8
f 18/32/8 13/31/8 12/33/9 19/34/9
f 19/34/9 12/33/9 11/35/10 20/36/10
f 20/36/10 11/35/10 10/37/11 21/38/11
f 21/38/11 10/37/11 9/39/12 22/40/12
f 22/40/12 9/39/12 7/26/4 16/25/4
f 8/20/6 15/1/6 2/11/13 1/21/13
f 6/27/14 4/24/14 3/12/14 5/28/14
f 60/41/15 68/42/15 33/43/16 23/44/16
f 78/45/17 86/46/17 69/47/17 59/48/17
f 86/49/1 88/50/1 89/51/1 90/52/1 91/53/1 92/54/1 93/55/1 94/56/1 87/57/1 50/58/1 52/59/1 53/60/1 54/61/1 55/62/1 56/63/1 57/64/1 58/65/1 51/66/1 32/67/1 34/68/1 35/69/1 36/70/1 37/71/1 38/72/1 39/73/1 40/74/1 33/75/1 68/76/1 70/77/1 71/78/1 72/79/1 73/80/1 74/81/1 75/82/1 76/83/1 69/47/1
f 24/84/18 32/85/18 51/86/18 41/87/18
f 42/88/19 50/89/19 87/90/20 77/91/20
f 23/44/16 33/43/16 40/92/21 25/93/21
f 25/93/21 40/92/21 39/94/22 26/95/22
f 26/95/22 39/94/22 38/96/23 27/97/23
f 27/97/23 38/96/23 37/98/24 28/99/24
f 28/100/24 37/101/24 36/102/25 29/103/25
f 29/103/25 36/102/25 35/104/26 30/105/26
f 30/105/26 35/104/26 34/106/27 31/107/27
f 31/107/27 34/106/27 32/85/28 24/84/28
f 50/89/19 42/88/19 49/108/29 52/109/29
f 52/109/29 49/108/29 48/110/30 53/111/30
f 53/111/30 48/110/30 47/112/31 54/113/31
f 54/113/31 47/112/31 46/114/32 55/115/32
f 55/115/32 46/114/32 45/116/33 56/117/33
f 56/117/33 45/116/33 44/118/34 57/119/34
f 57/119/34 44/118/34 43/120/35 58/121/35
f 58/121/35 43/120/35 41/87/36 51/86/36
f 86/46/37 78/45/37 85/122/38 88/123/38
f 88/123/38 85/122/38 84/124/39 89/125/39
f 89/125/39 84/124/39 83/126/40 90/127/40
f 90/127/40 83/126/40 82/128/41 91/129/41
f 91/129/41 82/128/41 81/130/42 92/131/42
f 92/131/42 81/130/42 80/132/43 93/133/43
f 93/133/43 80/132/43 79/134/44 94/135/44
f 94/135/44 79/134/44 77/91/20 87/90/20
f 68/42/15 60/41/15 67/136/45 70/137/45
f 70/137/45 67/136/45 66/138/46 71/139/46
f 71/139/46 66/138/46 65/140/47 72/141/47
f 72/141/47 65/140/47 64/142/48 73/143/48
f 73/143/48 64/142/48 63/144/49 74/145/49
f 74/145/49 63/144/49 62/146/50 75/147/50
f 75/147/50 62/146/50 61/148/51 76/149/51
f 76/149/51 61/148/51 59/48/52 69/47/52
f 41/150/2 43/151/2 44/152/2 45/153/2 46/154/2 47/155/2 48/156/2 49/157/2 42/158/2 77/159/2 79/160/2 80/161/2 81/162/2 82/163/2 83/164/2 84/165/2 85/166/2 78/167/2 59/48/2 61/168/2 62/169/2 63/170/2 64/171/2 65/172/2 66/173/2 67/174/2 60/175/2 23/176/2 25/177/2 26/178/2 27/179/2 28/180/2 29/181/2 30/182/2 31/183/2 24/184/2
